<svg width="58" height="55" viewBox="0 0 58 55" fill="none" xmlns="http://www.w3.org/2000/svg">
<g clip-path="url(#clip0_1_151)">
<path fill-rule="evenodd" clip-rule="evenodd" d="M58.0755 10.5044C49.4762 14.7232 45.1765 19.6801 45.1765 25.3755C48.8418 25.7974 51.8727 27.2915 54.2693 29.8579C56.6658 32.4243 57.864 35.395 57.864 38.77C57.864 42.356 56.701 45.3794 54.375 47.8403C52.0489 50.3013 49.1238 51.5317 45.5995 51.5317C41.6522 51.5317 38.2337 49.9321 35.3437 46.7329C32.4538 43.5337 31.0088 39.6489 31.0088 35.0786C31.0088 21.3676 38.6917 10.6451 54.0578 2.91064L58.0755 10.5044ZM27.112 10.5044C18.4421 14.7232 14.1073 19.6801 14.1073 25.3755C17.8431 25.7974 20.9092 27.2915 23.3057 29.8579C25.7022 32.4243 26.9005 35.395 26.9005 38.77C26.9005 42.356 25.7199 45.3794 23.3586 47.8403C20.9973 50.3013 18.0545 51.5317 14.5302 51.5317C10.5829 51.5317 7.18202 49.9321 4.32732 46.7329C1.47262 43.5337 0.0452881 39.6489 0.0452881 35.0786C0.0452881 21.3676 7.69296 10.6451 22.9885 2.91064L27.112 10.5044Z" fill="#D6D6D6"/>
</g>
<defs>
<clipPath id="clip0_1_151">
<rect width="58" height="54" fill="white" transform="translate(0 0.5)"/>
</clipPath>
</defs>
</svg>
